<?xml version="1.0" encoding="UTF-8" standalone="no"?><!DOCTYPE svg PUBLIC "-//W3C//DTD SVG 1.1//EN" "http://www.w3.org/Graphics/SVG/1.1/DTD/svg11.dtd"><svg width="100%" height="100%" viewBox="0 0 960 960" version="1.1" xmlns="http://www.w3.org/2000/svg" xmlns:xlink="http://www.w3.org/1999/xlink" xml:space="preserve" style="fill-rule:evenodd;clip-rule:evenodd;stroke-linejoin:round;stroke-miterlimit:1.41421;"><g id="Layer-2"><path d="M422.446,433.641l-28.442,-28.261l-55.999,56.356l-55.852,-55.497l-42.652,42.926l-2.59,-2.572l101.748,-102.4l86.883,86.332l-3.096,3.116Z" style="fill:#231f20;fill-rule:nonzero;"/><path d="M517.852,577.874l60.635,-22.069l-13.959,-13.869l-52.99,19.414m71.303,-94.727l96.187,95.577l-23.115,23.263l59.473,59.096l-49.829,50.146l-59.999,-59.618l-46.25,46.547l-6.716,-6.674l90.431,-91.009l-46.547,-46.251l-17.989,18.105l-13.959,-13.869l18.513,-18.632l-29.473,-29.285l-20.562,20.694l-6.207,-5.122l47.275,-47.577l-251.302,-249.707l20.564,-20.695l258.018,256.38l-18.513,18.631Z" style="fill:#231f20;fill-rule:nonzero;"/><g transform="matrix(0.978557,-0.205975,0.205975,0.978557,19.4045,-23.395)"><text x="291.62px" y="241.808px" style="font-family:'BauhausStd-Medium', 'Bauhaus Std';font-weight:500;font-size:172.793px;fill:#231f20;">L</text></g><g transform="matrix(1,0.000438405,-0.000438405,1,-0.0459966,0.0449972)"><text x="414.019px" y="138.731px" style="font-family:'BauhausStd-Medium', 'Bauhaus Std';font-weight:500;font-size:172.793px;fill:#231f20;">u</text></g><g transform="matrix(0.977856,0.209278,-0.209278,0.977856,-24.2257,19.162)"><text x="532.918px" y="8.937px" style="font-family:'BauhausStd-Medium', 'Bauhaus Std';font-weight:500;font-size:172.793px;fill:#231f20;">c</text></g><g transform="matrix(0.908658,0.41754,-0.41754,0.908658,-53.1753,33.284)"><text x="601.279px" y="-147.858px" style="font-family:'BauhausStd-Medium', 'Bauhaus Std';font-weight:500;font-size:172.793px;fill:#231f20;">a</text></g><g transform="matrix(0.790611,0.612318,-0.612318,0.790611,-85.7255,40.8976)"><text x="661.265px" y="-326.062px" style="font-family:'BauhausStd-Medium', 'Bauhaus Std';font-weight:500;font-size:172.793px;fill:#231f20;">s</text></g><g transform="matrix(0.525008,0.851097,-0.851097,0.525008,-138.04,37.5504)"><text x="643.075px" y="-615.745px" style="font-family:'BauhausStd-Medium', 'Bauhaus Std';font-weight:500;font-size:172.793px;fill:#231f20;">R</text></g><g transform="matrix(0.289601,0.957147,-0.957147,0.289601,-173.331,23.7446)"><text x="573.792px" y="-813.477px" style="font-family:'BauhausStd-Medium', 'Bauhaus Std';font-weight:500;font-size:172.793px;fill:#231f20;">a</text></g><g transform="matrix(0.0601722,0.998188,-0.998188,0.0601722,-201.19,3.8918)"><text x="479.069px" y="-971.261px" style="font-family:'BauhausStd-Medium', 'Bauhaus Std';font-weight:500;font-size:172.793px;fill:#231f20;">s</text></g><g transform="matrix(-0.212666,0.977125,-0.977125,-0.212666,-226.99,-26.8901)"><text x="288.009px" y="-1119.48px" style="font-family:'BauhausStd-Medium', 'Bauhaus Std';font-weight:500;font-size:172.793px;fill:#231f20;">m</text></g><g transform="matrix(-0.476554,0.879145,-0.879145,-0.476554,-243.804,-64.6295)"><text x="102.802px" y="-1219.19px" style="font-family:'BauhausStd-Medium', 'Bauhaus Std';font-weight:500;font-size:172.793px;fill:#231f20;">u</text></g><g transform="matrix(-0.657478,0.753473,-0.753473,-0.657478,-249.195,-96.5093)"><text x="-67.21px" y="-1254.98px" style="font-family:'BauhausStd-Medium', 'Bauhaus Std';font-weight:500;font-size:172.793px;fill:#231f20;">s</text></g><g transform="matrix(-0.799814,0.600247,-0.600247,-0.799814,-247.735,-127.17)"><text x="-238.487px" y="-1252.44px" style="font-family:'BauhausStd-Medium', 'Bauhaus Std';font-weight:500;font-size:172.793px;fill:#231f20;">s</text></g><g transform="matrix(-0.91836,0.395745,-0.395745,-0.91836,-238.454,-160.6)"><text x="-436.626px" y="-1206.8px" style="font-family:'BauhausStd-Medium', 'Bauhaus Std';font-weight:500;font-size:172.793px;fill:#231f20;">e</text></g><g transform="matrix(-0.987615,0.156894,-0.156894,-0.987615,-220.509,-192.385)"><text x="-611.307px" y="-1112.69px" style="font-family:'BauhausStd-Medium', 'Bauhaus Std';font-weight:500;font-size:172.793px;fill:#231f20;">n</text></g><path d="M295.51,242.08l-46.715,-70.138c-170.688,113.685 -217.263,346.11 -103.324,517.179l70.507,-46.962c-86.585,-132.594 -50.941,-311.069 79.532,-400.079" style="fill:#b11116;fill-rule:nonzero;"/></g></svg>