<?xml version="1.0" encoding="UTF-8" standalone="no"?><!DOCTYPE svg PUBLIC "-//W3C//DTD SVG 1.1//EN" "http://www.w3.org/Graphics/SVG/1.1/DTD/svg11.dtd"><svg width="100%" height="100%" viewBox="0 0 960 960" version="1.1" xmlns="http://www.w3.org/2000/svg" xmlns:xlink="http://www.w3.org/1999/xlink" xml:space="preserve" style="fill-rule:evenodd;clip-rule:evenodd;stroke-linejoin:round;stroke-miterlimit:1.41421;"><g id="Layer-2"><path d="M422.446,433.641l-28.442,-28.261l-55.999,56.356l-55.852,-55.497l-42.652,42.926l-2.59,-2.572l101.748,-102.4l86.883,86.332l-3.096,3.116Z" style="fill:#231f20;fill-rule:nonzero;"/><path d="M517.852,577.874l60.635,-22.069l-13.959,-13.869l-52.99,19.414m71.303,-94.727l96.187,95.577l-23.115,23.263l59.473,59.096l-49.829,50.146l-59.999,-59.618l-46.25,46.547l-6.716,-6.674l90.431,-91.009l-46.547,-46.251l-17.989,18.105l-13.959,-13.869l18.513,-18.632l-29.473,-29.285l-20.562,20.694l-6.207,-5.122l47.275,-47.577l-251.302,-249.707l20.564,-20.695l258.018,256.38l-18.513,18.631Z" style="fill:#231f20;fill-rule:nonzero;"/><g><path d="M340.486,32.522l16.87,80.148c4.698,22.319 22.754,35.117 45.581,30.313l17.754,-3.738l-3.132,-14.879l-15.387,3.239c-16.571,3.487 -25.897,-3.908 -29.741,-22.17l-16.051,-76.258l-15.894,3.345Z" style="fill:#231f20;fill-rule:nonzero;"/><path d="M477.363,56.045l-0.021,48.382c-0.006,12.786 -9.34,21.768 -20.226,21.763c-10.886,-0.005 -20.213,-8.994 -20.208,-21.781l0.022,-48.382l-15.206,-0.007l-0.021,48.382c-0.01,21.772 15.19,36.294 35.406,36.302c20.217,0.009 35.429,-14.499 35.439,-36.271l0.021,-48.382l-15.206,-0.006Z" style="fill:#231f20;fill-rule:nonzero;"/><path d="M574.559,71.633l-14.194,-3.037c-18.924,-4.051 -43.83,5.816 -49.399,31.836c-5.569,26.021 13.118,45.217 32.042,49.267l14.193,3.038l3.038,-14.193l-11.49,-2.459c-14.024,-3.002 -25.927,-15.091 -22.238,-32.326c3.688,-17.234 19.496,-23.393 33.52,-20.392l11.49,2.459l3.038,-14.193Z" style="fill:#231f20;fill-rule:nonzero;"/><path d="M635.935,187.218l18.903,-41.137c9.957,-21.667 1.691,-42.58 -21.546,-53.258c-24.18,-11.111 -46.731,-0.936 -56.615,20.575c-10.173,22.138 -3.011,47.108 18.656,57.064c9.578,4.401 16.359,3.714 23.731,2.157l7.503,-16.329c-7.452,3.802 -15.91,5.24 -23.76,1.633c-14.445,-6.638 -19.239,-23.103 -12.818,-37.077c6.565,-14.288 21.698,-21.977 36.928,-14.978c12.561,5.771 21.175,18.477 14.682,32.608l-19.48,42.393l13.816,6.349Z" style="fill:#231f20;fill-rule:nonzero;"/><path d="M640.557,190.977l33.607,26.028c11.612,8.993 24.904,9.89 34.533,-2.542c18.198,-23.497 -27.035,-50.88 -18.117,-62.113c3.311,-3.993 6.356,-4.256 12.231,0.293l30.328,23.489l8.887,-11.476l-28.278,-21.901c-14.345,-11.11 -27.166,-11.205 -36.159,0.407c-17.564,22.678 27.427,50.092 18.116,62.114c-3.174,4.098 -7.053,4.591 -12.654,0.253l-33.606,-26.028l-8.888,11.476Z" style="fill:#231f20;fill-rule:nonzero;"/><path d="M736.702,282.776l71.914,-44.361c11.912,-7.348 25.025,-3.864 32.373,8.048c5.806,9.412 4.449,22.024 -5.698,28.284c-11.471,7.076 -22.684,1.405 -30.213,-10.801l-6.714,-10.883l-12.941,7.983l9.434,15.295c7.893,12.794 4.904,22.759 -5.244,29.019l-28.236,17.418l8.528,13.824l28.677,-17.69c15.001,-9.254 17.301,-17.373 15.388,-28.374c10.408,5.355 20.436,3.839 30.29,-2.239c15.883,-9.798 21.373,-30.848 9.67,-49.819c-12.519,-20.295 -34.723,-25.682 -57.812,-11.439l-67.944,41.911l8.528,13.824Z" style="fill:#231f20;fill-rule:nonzero;"/><path d="M797.278,422.704l43.332,-13.11c22.823,-6.906 33.004,-26.956 25.598,-51.434c-7.706,-25.469 -30.272,-35.611 -52.93,-28.756c-23.32,7.056 -37.27,28.969 -30.364,51.792c3.052,10.089 8.061,14.711 14.113,19.199l17.2,-5.204c-7.786,-3.061 -14.468,-8.44 -16.97,-16.71c-4.604,-15.215 4.547,-29.719 19.267,-34.172c15.05,-4.554 30.838,1.681 35.692,17.724c4.003,13.231 0.198,28.102 -14.687,32.606l-44.655,13.511l4.404,14.554Z" style="fill:#231f20;fill-rule:nonzero;"/><path d="M797.43,428.479l2.557,42.43c0.884,14.661 8.966,25.253 24.662,24.306c29.666,-1.788 20.469,-53.858 34.795,-54.548c5.185,-0.14 7.39,1.978 7.837,9.394l2.308,38.291l14.488,-0.874l-2.152,-35.703c-1.092,-18.11 -9.467,-27.819 -24.127,-26.935c-28.632,1.726 -19.617,53.634 -34.796,54.549c-5.174,0.312 -8.1,-2.282 -8.526,-9.353l-2.558,-42.43l-14.488,0.873Z" style="fill:#231f20;fill-rule:nonzero;"/><path d="M800.595,515.736l51.665,11.245c10.299,2.241 15.635,9.415 13.724,18.195c-2.095,9.624 -8.857,14.695 -22.702,11.682l-49.302,-10.731l-3.233,14.858l49.301,10.73c13.845,3.014 17.888,10.437 15.794,20.061c-1.911,8.779 -9.745,13.087 -20.045,10.845l-51.665,-11.244l-3.234,14.858l55.042,11.979c15.196,3.307 30.409,-6.468 34.011,-23.014c1.984,-9.117 0.254,-19.043 -6.337,-26.136c8.943,-3.713 14.642,-12.022 16.626,-21.139c3.601,-16.547 -6.174,-31.76 -21.369,-35.067l-55.042,-11.98l-3.234,14.858Z" style="fill:#231f20;fill-rule:nonzero;"/><path d="M821.745,702.034l-42.535,-23.057c-11.241,-6.093 -14.694,-18.578 -9.506,-28.149c5.188,-9.57 17.534,-13.491 28.775,-7.398l42.535,23.057l7.246,-13.368l-42.535,-23.057c-19.14,-10.375 -39.147,-3.924 -48.782,13.849c-9.634,17.774 -4.12,38.059 15.021,48.434l42.535,23.057l7.246,-13.368Z" style="fill:#231f20;fill-rule:nonzero;"/><path d="M737.409,681.619l-27.948,32.028c-9.656,11.067 -11.329,24.284 0.519,34.623c22.393,19.54 52.373,-24.015 63.066,-14.456c3.792,3.539 3.877,6.594 -1.008,12.193l-25.221,28.903l10.937,9.543l23.517,-26.95c11.928,-13.671 12.772,-26.465 1.706,-36.121c-21.613,-18.859 -51.609,24.453 -63.066,14.455c-3.906,-3.408 -4.171,-7.309 0.487,-12.647l27.947,-32.028l-10.936,-9.543Z" style="fill:#231f20;fill-rule:nonzero;"/><path d="M690.918,734.307l-33.998,25.514c-11.747,8.816 -16.132,21.397 -6.694,33.974c17.84,23.77 56.223,-12.597 64.694,-1.023c2.973,4.25 2.421,7.257 -3.522,11.717l-30.681,23.025l8.713,11.609l28.608,-21.469c14.511,-10.891 17.997,-23.229 9.181,-34.977c-17.217,-22.941 -55.566,13.184 -64.693,1.023c-3.112,-4.146 -2.56,-8.017 3.107,-12.27l33.997,-25.514l-8.712,-11.609Z" style="fill:#231f20;fill-rule:nonzero;"/><path d="M582.135,863.464c13.501,11.68 29.437,15.914 47.21,8.255c21.105,-9.094 32.538,-33.213 22.417,-56.698c-10.12,-23.486 -35.503,-31.739 -56.608,-22.645c-21.899,9.437 -31.52,31.646 -24.423,52.483l14.876,-4.341c-3.162,-15.195 -1.213,-27.7 15.291,-34.812c14.44,-6.223 29.564,0.055 36.265,15.606c6.701,15.551 0.878,30.855 -13.562,37.078c-8.569,3.692 -13.631,2.863 -20.443,0.154l28.582,-37.153l-10.499,-8.646l-39.106,50.719Z" style="fill:#231f20;fill-rule:nonzero;"/><path d="M535.105,814.224l7.591,47.783c2.006,12.628 -5.799,22.966 -16.55,24.674c-10.751,1.708 -21.376,-5.702 -23.383,-18.331l-7.59,-47.783l-15.018,2.386l7.591,47.783c3.416,21.502 20.711,33.451 40.677,30.28c19.966,-3.172 32.707,-19.893 29.291,-41.395l-7.591,-47.783l-15.018,2.386Z" style="fill:#231f20;fill-rule:nonzero;"/></g><path d="M295.51,242.08l-46.715,-70.138c-170.688,113.685 -217.263,346.11 -103.324,517.179l70.507,-46.962c-86.585,-132.594 -50.941,-311.069 79.532,-400.079" style="fill:#b11116;fill-rule:nonzero;"/></g></svg>